<svg width="80" height="80" viewBox="0 0 80 80" fill="none" xmlns="http://www.w3.org/2000/svg">
<rect width="80" height="80" rx="15.625" fill="white"/>
<path d="M11.3884 51.208C9.86329 51.208 8.49662 50.9604 7.28841 50.4652C6.08019 49.97 5.10966 49.2372 4.37681 48.2667C3.66377 47.2961 3.28744 46.1275 3.24783 44.7609H8.65507C8.7343 45.5333 9.00169 46.1275 9.45725 46.5435C9.9128 46.9396 10.507 47.1377 11.2399 47.1377C11.9925 47.1377 12.5867 46.9693 13.0225 46.6326C13.4582 46.2761 13.6761 45.7908 13.6761 45.1768C13.6761 44.6618 13.4978 44.236 13.1413 43.8993C12.8046 43.5626 12.3787 43.2853 11.8638 43.0674C11.3686 42.8495 10.6556 42.6019 9.72464 42.3246C8.37778 41.9087 7.2785 41.4928 6.42681 41.0768C5.57512 40.6609 4.84227 40.0469 4.22826 39.2348C3.61425 38.4227 3.30725 37.363 3.30725 36.0558C3.30725 34.1147 4.01039 32.5995 5.41667 31.5101C6.82295 30.401 8.65507 29.8464 10.913 29.8464C13.2106 29.8464 15.0626 30.401 16.4688 31.5101C17.8751 32.5995 18.6278 34.1246 18.7268 36.0855H13.2304C13.1908 35.4121 12.9432 34.8872 12.4877 34.5109C12.0321 34.1147 11.4478 33.9167 10.7348 33.9167C10.1208 33.9167 9.6256 34.085 9.24928 34.4217C8.87295 34.7386 8.68478 35.2041 8.68478 35.8181C8.68478 36.4915 9.00169 37.0164 9.63551 37.3928C10.2693 37.7691 11.2597 38.1751 12.6065 38.6109C13.9534 39.0664 15.0428 39.5022 15.8746 39.9181C16.7263 40.3341 17.4592 40.9382 18.0732 41.7304C18.6872 42.5227 18.9942 43.5428 18.9942 44.7906C18.9942 45.979 18.6872 47.0585 18.0732 48.029C17.479 48.9995 16.6075 49.772 15.4587 50.3464C14.3099 50.9208 12.9531 51.208 11.3884 51.208ZM27.6765 51.208C25.7157 51.208 23.9132 50.7524 22.2693 49.8413C20.6451 48.9302 19.3478 47.6626 18.3773 46.0384C17.4265 44.3944 16.9512 42.5524 16.9512 40.5123C16.9512 38.4722 17.4265 36.6401 18.3773 35.0159C19.3478 33.3918 20.6451 32.1242 22.2693 31.213C23.9132 30.3019 25.7157 29.8464 27.6765 29.8464C29.6374 29.8464 31.4299 30.3019 33.0541 31.213C34.698 32.1242 35.9855 33.3918 36.9164 35.0159C37.8671 36.6401 38.3425 38.4722 38.3425 40.5123C38.3425 42.5524 37.8671 44.3944 36.9164 46.0384C35.9657 47.6626 34.6782 48.9302 33.0541 49.8413C31.4299 50.7524 29.6374 51.208 27.6765 51.208ZM27.6765 46.5732C29.3403 46.5732 30.6673 46.0186 31.6577 44.9094C32.6678 43.8002 33.1729 42.3345 33.1729 40.5123C33.1729 38.6703 32.6678 37.2046 31.6577 36.1152C30.6673 35.006 29.3403 34.4514 27.6765 34.4514C25.993 34.4514 24.6461 34.9961 23.6359 36.0855C22.6456 37.1749 22.1504 38.6505 22.1504 40.5123C22.1504 42.3543 22.6456 43.83 23.6359 44.9391C24.6461 46.0285 25.993 46.5732 27.6765 46.5732ZM46.7247 51.208C44.7638 51.208 42.9614 50.7524 41.3174 49.8413C39.6933 48.9302 38.3959 47.6626 37.4254 46.0384C36.4747 44.3944 35.9993 42.5524 35.9993 40.5123C35.9993 38.4722 36.4747 36.6401 37.4254 35.0159C38.3959 33.3918 39.6933 32.1242 41.3174 31.213C42.9614 30.3019 44.7638 29.8464 46.7247 29.8464C48.6855 29.8464 50.4781 30.3019 52.1022 31.213C53.7462 32.1242 55.0336 33.3918 55.9645 35.0159C56.9153 36.6401 57.3906 38.4722 57.3906 40.5123C57.3906 42.5524 56.9153 44.3944 55.9645 46.0384C55.0138 47.6626 53.7264 48.9302 52.1022 49.8413C50.4781 50.7524 48.6855 51.208 46.7247 51.208ZM46.7247 46.5732C48.3884 46.5732 49.7155 46.0186 50.7058 44.9094C51.716 43.8002 52.2211 42.3345 52.2211 40.5123C52.2211 38.6703 51.716 37.2046 50.7058 36.1152C49.7155 35.006 48.3884 34.4514 46.7247 34.4514C45.0411 34.4514 43.6942 34.9961 42.6841 36.0855C41.6938 37.1749 41.1986 38.6505 41.1986 40.5123C41.1986 42.3543 41.6938 43.83 42.6841 44.9391C43.6942 46.0285 45.0411 46.5732 46.7247 46.5732ZM74.567 51H69.4866L60.9895 38.1355V51H55.9091V30.1435H60.9895L69.4866 43.0674V30.1435H74.567V51Z" fill="#10265F"/>
</svg>
