<svg width="80" height="80" viewBox="0 0 80 80" fill="none" xmlns="http://www.w3.org/2000/svg">
<rect width="80" height="80" rx="15.625" fill="white"/>
<path fill-rule="evenodd" clip-rule="evenodd" d="M53.4375 24.3466H46.5625V26.6095C49.0574 26.6372 51.0714 28.6683 51.0714 31.1698C51.0714 31.1871 51.0713 31.2043 51.0711 31.2216H53.4375V24.3466Z" fill="#4E37D7"/>
<rect x="17.8125" y="53.2812" width="11.0938" height="11.0938" rx="0.78125" fill="#C8A475"/>
<path d="M21.3523 63.001V63.1238H20.9122V63.001H21.3523ZM20.96 62.296V63.1238H20.8036V62.296H20.96ZM21.2949 62.6377V62.7576H20.9122V62.6377H21.2949ZM21.3506 62.296V62.4193H20.9122V62.296H21.3506ZM21.8941 62.9089C21.8941 62.8929 21.8917 62.8787 21.8867 62.8662C21.8822 62.8533 21.8737 62.8418 21.8612 62.8315C21.849 62.8209 21.8318 62.8107 21.8094 62.8008C21.7874 62.7906 21.759 62.78 21.7241 62.769C21.6855 62.7569 21.6495 62.7432 21.6161 62.7281C21.5828 62.7129 21.5534 62.6953 21.528 62.6752C21.503 62.6551 21.4834 62.632 21.4694 62.6058C21.4554 62.5793 21.4484 62.5486 21.4484 62.5137C21.4484 62.4796 21.4556 62.4485 21.47 62.4205C21.4848 62.3924 21.5056 62.3684 21.5325 62.3483C21.5594 62.3278 21.5911 62.3121 21.6275 62.3011C21.6642 62.2901 21.7048 62.2846 21.7492 62.2846C21.8106 62.2846 21.8636 62.2958 21.9084 62.3181C21.9535 62.3405 21.9883 62.3708 22.013 62.4091C22.0376 62.4474 22.0499 62.4904 22.0499 62.5382H21.8941C21.8941 62.5124 21.8886 62.4896 21.8776 62.4699C21.867 62.4502 21.8507 62.4347 21.8288 62.4233C21.8071 62.4119 21.7799 62.4063 21.7469 62.4063C21.715 62.4063 21.6885 62.411 21.6673 62.4205C21.6464 62.4299 21.6307 62.4428 21.6201 62.4591C21.6099 62.4754 21.6047 62.4936 21.6047 62.5137C21.6047 62.5289 21.6083 62.5425 21.6155 62.5547C21.6227 62.5664 21.6335 62.5776 21.648 62.5882C21.6624 62.5984 21.6802 62.6081 21.7014 62.6172C21.723 62.6259 21.748 62.6346 21.7764 62.6433C21.8219 62.657 21.8617 62.6722 21.8958 62.6888C21.9303 62.7055 21.959 62.7245 21.9817 62.7457C22.0048 62.7669 22.0221 62.7908 22.0334 62.8173C22.0452 62.8439 22.0511 62.874 22.0511 62.9077C22.0511 62.9434 22.044 62.9752 22.03 63.0032C22.016 63.0313 21.9959 63.0552 21.9698 63.0749C21.9436 63.0946 21.9121 63.1096 21.8754 63.1198C21.839 63.13 21.7982 63.1352 21.7531 63.1352C21.713 63.1352 21.6732 63.1298 21.6337 63.1192C21.5947 63.1082 21.5593 63.0919 21.5274 63.0703C21.4956 63.0484 21.4702 63.0207 21.4512 62.9873C21.4323 62.9536 21.4228 62.9142 21.4228 62.8691H21.5797C21.5797 62.8952 21.5839 62.9176 21.5922 62.9362C21.6009 62.9543 21.6131 62.9693 21.6286 62.9811C21.6445 62.9924 21.6631 63.0008 21.6843 63.0061C21.7056 63.0114 21.7285 63.014 21.7531 63.014C21.785 63.014 21.8111 63.0097 21.8316 63.001C21.8524 62.9919 21.868 62.9794 21.8782 62.9634C21.8888 62.9475 21.8941 62.9293 21.8941 62.9089ZM22.5269 62.296V63.1238H22.3712V62.296H22.5269ZM22.7839 62.296V62.4193H22.117V62.296H22.7839ZM23.6908 63.0055V63.1238H23.1302V63.0226L23.3991 62.732C23.4272 62.7002 23.4493 62.6725 23.4656 62.649C23.4819 62.6255 23.4935 62.6043 23.5003 62.5854C23.5075 62.566 23.5111 62.5476 23.5111 62.5302C23.5111 62.5048 23.5066 62.4826 23.4975 62.4637C23.4884 62.4444 23.4751 62.4294 23.4577 62.4188C23.4406 62.4082 23.4196 62.4028 23.3946 62.4028C23.3669 62.4028 23.3432 62.4093 23.3235 62.4222C23.3042 62.4347 23.2894 62.4521 23.2791 62.4745C23.2693 62.4968 23.2644 62.5224 23.2644 62.5512H23.1137C23.1137 62.5023 23.1251 62.4578 23.1478 62.4176C23.1706 62.3771 23.2032 62.3447 23.2456 62.3204C23.2881 62.2961 23.3385 62.284 23.3968 62.284C23.4537 62.284 23.5018 62.2935 23.5413 62.3124C23.5807 62.331 23.6106 62.3575 23.6311 62.392C23.6516 62.4265 23.6618 62.4677 23.6618 62.5154C23.6618 62.542 23.6574 62.5681 23.6487 62.5939C23.64 62.6197 23.6277 62.6452 23.6118 62.6706C23.5962 62.6957 23.5776 62.721 23.556 62.7468C23.5344 62.7726 23.5104 62.7989 23.4838 62.8259L23.3224 63.0055H23.6908ZM24.3435 62.6388V62.7781C24.3435 62.8418 24.3371 62.8962 24.3242 62.9413C24.3113 62.9864 24.2927 63.0233 24.2684 63.0521C24.2442 63.0806 24.2152 63.1016 24.1815 63.1153C24.1477 63.1285 24.1102 63.1352 24.0689 63.1352C24.0359 63.1352 24.0052 63.131 23.9768 63.1226C23.9483 63.1139 23.9228 63.1007 23.9 63.0828C23.8777 63.0646 23.8583 63.0415 23.842 63.0135C23.8261 62.9854 23.8138 62.9519 23.8051 62.9128C23.7967 62.8738 23.7926 62.8289 23.7926 62.7781V62.6388C23.7926 62.5751 23.799 62.5209 23.8119 62.4762C23.8252 62.4315 23.8439 62.3949 23.8682 62.3665C23.8924 62.338 23.9214 62.3174 23.9552 62.3045C23.9889 62.2912 24.0264 62.2846 24.0677 62.2846C24.1011 62.2846 24.1318 62.2888 24.1598 62.2971C24.1883 62.3054 24.2137 62.3185 24.236 62.3363C24.2588 62.3538 24.2781 62.3765 24.294 62.4046C24.3099 62.4322 24.3221 62.4656 24.3304 62.5046C24.3391 62.5433 24.3435 62.588 24.3435 62.6388ZM24.1934 62.7986V62.6178C24.1934 62.5859 24.1915 62.5583 24.1877 62.5348C24.1843 62.5109 24.1792 62.4906 24.1724 62.4739C24.1655 62.4572 24.157 62.4438 24.1468 62.4335C24.1365 62.4229 24.1248 62.4152 24.1115 62.4102C24.0983 62.4053 24.0837 62.4028 24.0677 62.4028C24.048 62.4028 24.0304 62.4068 24.0149 62.4148C23.9993 62.4224 23.9862 62.4345 23.9756 62.4512C23.965 62.4679 23.9569 62.49 23.9512 62.5177C23.9459 62.545 23.9432 62.5783 23.9432 62.6178V62.7986C23.9432 62.8304 23.9449 62.8583 23.9483 62.8821C23.9521 62.906 23.9574 62.9265 23.9643 62.9435C23.9715 62.9606 23.98 62.9746 23.9898 62.9856C24.0001 62.9962 24.0118 63.0042 24.0251 63.0095C24.0384 63.0144 24.053 63.0169 24.0689 63.0169C24.089 63.0169 24.1066 63.0129 24.1218 63.005C24.1373 62.997 24.1504 62.9845 24.161 62.9674C24.1716 62.95 24.1796 62.9274 24.1849 62.8998C24.1906 62.8717 24.1934 62.838 24.1934 62.7986ZM25.0212 63.0055V63.1238H24.4606V63.0226L24.7295 62.732C24.7576 62.7002 24.7798 62.6725 24.7961 62.649C24.8124 62.6255 24.8239 62.6043 24.8307 62.5854C24.838 62.566 24.8416 62.5476 24.8416 62.5302C24.8416 62.5048 24.837 62.4826 24.8279 62.4637C24.8188 62.4444 24.8055 62.4294 24.7881 62.4188C24.7711 62.4082 24.75 62.4028 24.725 62.4028C24.6973 62.4028 24.6736 62.4093 24.6539 62.4222C24.6346 62.4347 24.6198 62.4521 24.6096 62.4745C24.5997 62.4968 24.5948 62.5224 24.5948 62.5512H24.4441C24.4441 62.5023 24.4555 62.4578 24.4782 62.4176C24.501 62.3771 24.5336 62.3447 24.576 62.3204C24.6185 62.2961 24.6689 62.284 24.7273 62.284C24.7841 62.284 24.8323 62.2935 24.8717 62.3124C24.9111 62.331 24.9411 62.3575 24.9615 62.392C24.982 62.4265 24.9922 62.4677 24.9922 62.5154C24.9922 62.542 24.9879 62.5681 24.9791 62.5939C24.9704 62.6197 24.9581 62.6452 24.9422 62.6706C24.9266 62.6957 24.9081 62.721 24.8865 62.7468C24.8649 62.7726 24.8408 62.7989 24.8143 62.8259L24.6528 63.0055H25.0212ZM25.2901 62.6433H25.3749C25.4048 62.6433 25.4294 62.6382 25.4488 62.628C25.4685 62.6174 25.4831 62.603 25.4926 62.5848C25.5024 62.5662 25.5073 62.5448 25.5073 62.5205C25.5073 62.4967 25.503 62.476 25.4943 62.4586C25.4855 62.4407 25.4723 62.4271 25.4545 62.4176C25.437 62.4078 25.4147 62.4028 25.3874 62.4028C25.3654 62.4028 25.3451 62.4072 25.3265 62.4159C25.3083 62.4246 25.2937 62.4371 25.2828 62.4534C25.2721 62.4694 25.2668 62.4885 25.2668 62.5109H25.1162C25.1162 62.4661 25.1279 62.4269 25.1514 62.3932C25.1753 62.3591 25.2075 62.3323 25.2481 62.313C25.2886 62.2937 25.3339 62.284 25.384 62.284C25.4385 62.284 25.4863 62.2931 25.5272 62.3113C25.5686 62.3291 25.6006 62.3555 25.6233 62.3903C25.6464 62.4252 25.658 62.4684 25.658 62.52C25.658 62.5446 25.6521 62.5692 25.6404 62.5939C25.629 62.6181 25.6121 62.6401 25.5898 62.6598C25.5678 62.6792 25.5407 62.6949 25.5085 62.707C25.4766 62.7188 25.4401 62.7247 25.3987 62.7247H25.2901V62.6433ZM25.2901 62.7593V62.6792H25.3987C25.4454 62.6792 25.4857 62.6847 25.5198 62.6957C25.5543 62.7063 25.5828 62.7214 25.6051 62.7411C25.6275 62.7605 25.644 62.783 25.6546 62.8088C25.6656 62.8346 25.6711 62.8622 25.6711 62.8918C25.6711 62.9305 25.6639 62.965 25.6495 62.9953C25.6351 63.0252 25.6148 63.0506 25.5886 63.0715C25.5629 63.0923 25.5325 63.1082 25.4977 63.1192C25.4628 63.1298 25.4251 63.1352 25.3845 63.1352C25.3493 63.1352 25.315 63.1304 25.2816 63.1209C25.2486 63.1111 25.2189 63.0965 25.1924 63.0772C25.1658 63.0574 25.1448 63.0328 25.1292 63.0032C25.1137 62.9733 25.1059 62.9386 25.1059 62.8992H25.2566C25.2566 62.9219 25.2621 62.9422 25.2731 62.96C25.2845 62.9778 25.3 62.9919 25.3197 63.0021C25.3398 63.012 25.3624 63.0169 25.3874 63.0169C25.415 63.0169 25.4387 63.012 25.4584 63.0021C25.4785 62.9919 25.4939 62.9775 25.5045 62.9589C25.5151 62.9399 25.5204 62.9174 25.5204 62.8912C25.5204 62.8602 25.5145 62.835 25.5028 62.8156C25.491 62.7963 25.4742 62.7821 25.4522 62.773C25.4306 62.7639 25.4048 62.7593 25.3749 62.7593H25.2901Z" fill="#4E37D7"/>
<path fill-rule="evenodd" clip-rule="evenodd" d="M28.0828 51.875C28.5143 51.875 28.8641 51.5252 28.8641 51.0938V27.4578C28.8641 27.0263 29.2138 26.6766 29.6453 26.6766H48.8352C50.0745 26.6766 51.0791 27.6812 51.0791 28.9205V42.2159C51.0791 48.3504 46.1061 53.3234 39.9716 53.3234H31.0938C30.6623 53.3234 30.3125 53.6732 30.3125 54.1047V63.5938C30.3125 64.0252 29.9627 64.375 29.5313 64.375L17.8125 64.375H28.8641H39.9716C52.2097 64.375 62.1307 54.454 62.1307 42.2159V28.9205C62.1307 21.5776 56.1781 15.625 48.8352 15.625H21.7188C19.5614 15.625 17.8125 17.3739 17.8125 19.5313V51.0938C17.8125 51.5252 18.1623 51.875 18.5938 51.875H28.0828Z" fill="#4E37D7"/>
<path fill-rule="evenodd" clip-rule="evenodd" d="M21.5625 53.2812H25V59.3095L24.9622 59.375H24.9477L24.7041 58.9531C24.6921 58.9323 24.662 58.9323 24.65 58.9531L24.4064 59.375H24.3899L24.1464 58.9531C24.1343 58.9323 24.1043 58.9323 24.0922 58.9531L23.8487 59.375H23.8342L23.5906 58.9531C23.5786 58.9323 23.5485 58.9323 23.5365 58.9531L23.2929 59.375H23.2784L23.0348 58.9531C23.0228 58.9323 22.9927 58.9323 22.9807 58.9531L22.7371 59.375H22.7226L22.479 58.9531C22.467 58.9323 22.4369 58.9323 22.4249 58.9531L22.1814 59.375H22.1668L21.9233 58.9531C21.9112 58.9323 21.8812 58.9323 21.8691 58.9531L21.6256 59.375H21.6112L21.5625 59.2906V53.2812Z" fill="#4E37D7"/>
</svg>
