<svg width="122" height="122" viewBox="0 0 122 122" fill="none" xmlns="http://www.w3.org/2000/svg">
<rect width="122" height="122" rx="23.8281" fill="white"/>
<path fill-rule="evenodd" clip-rule="evenodd" d="M81.4922 37.1283H71.0078V40.5794C74.8125 40.6217 77.8837 43.7192 77.8837 47.5339C77.8837 47.5602 77.8836 47.5864 77.8833 47.6127H81.4922V37.1283Z" fill="#10265F"/>
<rect x="27.1641" y="81.2539" width="16.918" height="16.918" rx="1.19141" fill="#C8A475"/>
<path d="M32.5607 96.5516V96.7389H31.8896V96.5516H32.5607ZM31.9625 95.4765V96.7389H31.724V95.4765H31.9625ZM32.4732 95.9976V96.1805H31.8896V95.9976H32.4732ZM32.5581 95.4765V95.6646H31.8896V95.4765H32.5581ZM33.387 96.4111C33.387 96.3869 33.3833 96.3652 33.3758 96.3461C33.3688 96.3265 33.3558 96.3088 33.3368 96.2932C33.3183 96.277 33.292 96.2614 33.2579 96.2464C33.2243 96.2308 33.181 96.2146 33.1278 96.1978C33.0688 96.1794 33.0139 96.1585 32.9631 96.1354C32.9122 96.1123 32.8674 96.0854 32.8287 96.0548C32.7905 96.0242 32.7607 95.9889 32.7394 95.949C32.718 95.9085 32.7073 95.8617 32.7073 95.8085C32.7073 95.7565 32.7183 95.7091 32.7402 95.6663C32.7628 95.6236 32.7946 95.5869 32.8356 95.5562C32.8766 95.525 32.9249 95.501 32.9804 95.4843C33.0365 95.4675 33.0983 95.4591 33.1659 95.4591C33.2596 95.4591 33.3405 95.4762 33.4087 95.5103C33.4775 95.5444 33.5307 95.5906 33.5683 95.649C33.6058 95.7074 33.6246 95.773 33.6246 95.8458H33.387C33.387 95.8065 33.3787 95.7718 33.3619 95.7418C33.3457 95.7117 33.3209 95.688 33.2873 95.6707C33.2544 95.6533 33.2128 95.6447 33.1625 95.6447C33.1139 95.6447 33.0735 95.6519 33.0411 95.6663C33.0093 95.6808 32.9853 95.7004 32.9691 95.7253C32.9535 95.7502 32.9457 95.7779 32.9457 95.8085C32.9457 95.8317 32.9512 95.8525 32.9622 95.871C32.9732 95.8889 32.9896 95.9059 33.0116 95.9221C33.0336 95.9377 33.0607 95.9525 33.0931 95.9663C33.1261 95.9796 33.1642 95.9929 33.2076 96.0062C33.2769 96.027 33.3376 96.0502 33.3896 96.0756C33.4422 96.101 33.4859 96.1299 33.5206 96.1623C33.5558 96.1947 33.5821 96.2311 33.5995 96.2715C33.6174 96.312 33.6264 96.358 33.6264 96.4094C33.6264 96.4637 33.6157 96.5123 33.5943 96.5551C33.5729 96.5979 33.5422 96.6343 33.5024 96.6643C33.4625 96.6944 33.4145 96.7172 33.3584 96.7328C33.3029 96.7484 33.2408 96.7562 33.172 96.7562C33.1107 96.7562 33.0501 96.7481 32.9899 96.732C32.9304 96.7152 32.8764 96.6903 32.8278 96.6574C32.7792 96.6239 32.7405 96.5817 32.7116 96.5308C32.6827 96.4794 32.6683 96.4192 32.6683 96.3505H32.9076C32.9076 96.3903 32.9139 96.4244 32.9266 96.4528C32.9399 96.4805 32.9584 96.5033 32.9821 96.5213C33.0064 96.5386 33.0347 96.5513 33.0671 96.5594C33.0995 96.5675 33.1344 96.5716 33.172 96.5716C33.2206 96.5716 33.2605 96.5649 33.2917 96.5516C33.3235 96.5377 33.3472 96.5187 33.3628 96.4944C33.379 96.4701 33.387 96.4424 33.387 96.4111ZM34.3521 95.4765V96.7389H34.1145V95.4765H34.3521ZM34.744 95.4765V95.6646H33.7269V95.4765H34.744ZM36.1269 96.5585V96.7389H35.272V96.5846L35.6821 96.1415C35.7249 96.0929 35.7587 96.0507 35.7836 96.0149C35.8084 95.9791 35.8261 95.9467 35.8365 95.9178C35.8475 95.8883 35.8529 95.8603 35.8529 95.8337C35.8529 95.795 35.846 95.7611 35.8321 95.7322C35.8183 95.7028 35.798 95.6799 35.7714 95.6637C35.7454 95.6476 35.7134 95.6395 35.6752 95.6395C35.633 95.6395 35.5969 95.6493 35.5668 95.6689C35.5373 95.688 35.5148 95.7146 35.4992 95.7487C35.4842 95.7828 35.4766 95.8218 35.4766 95.8658H35.2469C35.2469 95.7912 35.2642 95.7233 35.2989 95.662C35.3336 95.6002 35.3833 95.5507 35.448 95.5137C35.5128 95.4767 35.5897 95.4583 35.6787 95.4583C35.7654 95.4583 35.8388 95.4727 35.8989 95.5016C35.959 95.5299 36.0047 95.5704 36.0359 95.623C36.0671 95.6756 36.0827 95.7383 36.0827 95.8111C36.0827 95.8516 36.0761 95.8915 36.0628 95.9308C36.0495 95.9701 36.0307 96.0091 36.0064 96.0478C35.9827 96.086 35.9544 96.1247 35.9214 96.164C35.8885 96.2033 35.8518 96.2435 35.8113 96.2846L35.5651 96.5585H36.1269ZM37.1223 95.9993V96.2117C37.1223 96.3088 37.1125 96.3918 37.0928 96.4606C37.0732 96.5294 37.0449 96.5857 37.0079 96.6296C36.9709 96.673 36.9266 96.7051 36.8752 96.7259C36.8238 96.7461 36.7665 96.7562 36.7035 96.7562C36.6532 96.7562 36.6064 96.7499 36.5631 96.7372C36.5197 96.7239 36.4807 96.7036 36.446 96.6765C36.4119 96.6487 36.3824 96.6135 36.3576 96.5707C36.3333 96.5279 36.3145 96.4768 36.3012 96.4172C36.2885 96.3577 36.2821 96.2892 36.2821 96.2117V95.9993C36.2821 95.9022 36.292 95.8195 36.3116 95.7513C36.3319 95.6831 36.3605 95.6273 36.3975 95.584C36.4345 95.5406 36.4787 95.5091 36.5301 95.4895C36.5816 95.4692 36.6388 95.4591 36.7018 95.4591C36.7527 95.4591 36.7995 95.4655 36.8423 95.4782C36.8856 95.4909 36.9243 95.5109 36.9584 95.538C36.9931 95.5646 37.0226 95.5993 37.0469 95.6421C37.0712 95.6843 37.0897 95.7351 37.1024 95.7947C37.1157 95.8536 37.1223 95.9218 37.1223 95.9993ZM36.8934 96.2429V95.9672C36.8934 95.9187 36.8905 95.8765 36.8847 95.8406C36.8795 95.8042 36.8717 95.7733 36.8613 95.7478C36.8509 95.7224 36.8379 95.7019 36.8223 95.6863C36.8067 95.6701 36.7888 95.6583 36.7686 95.6507C36.7483 95.6432 36.7261 95.6395 36.7018 95.6395C36.6717 95.6395 36.6449 95.6455 36.6212 95.6577C36.5975 95.6692 36.5775 95.6877 36.5613 95.7132C36.5451 95.7386 36.5327 95.7724 36.524 95.8146C36.516 95.8562 36.5119 95.9071 36.5119 95.9672V96.2429C36.5119 96.2915 36.5145 96.334 36.5197 96.3704C36.5255 96.4068 36.5336 96.438 36.544 96.464C36.555 96.49 36.568 96.5114 36.583 96.5282C36.5986 96.5444 36.6165 96.5565 36.6368 96.5646C36.657 96.5721 36.6793 96.5759 36.7035 96.5759C36.7342 96.5759 36.761 96.5698 36.7842 96.5577C36.8079 96.5455 36.8278 96.5265 36.844 96.5005C36.8602 96.4739 36.8723 96.4395 36.8804 96.3973C36.8891 96.3545 36.8934 96.3031 36.8934 96.2429ZM38.1558 96.5585V96.7389H37.3009V96.5846L37.711 96.1415C37.7538 96.0929 37.7876 96.0507 37.8125 96.0149C37.8373 95.9791 37.855 95.9467 37.8654 95.9178C37.8764 95.8883 37.8819 95.8603 37.8819 95.8337C37.8819 95.795 37.8749 95.7611 37.861 95.7322C37.8472 95.7028 37.8269 95.6799 37.8004 95.6637C37.7743 95.6476 37.7423 95.6395 37.7041 95.6395C37.6619 95.6395 37.6258 95.6493 37.5957 95.6689C37.5662 95.688 37.5437 95.7146 37.5281 95.7487C37.5131 95.7828 37.5056 95.8218 37.5056 95.8658H37.2758C37.2758 95.7912 37.2931 95.7233 37.3278 95.662C37.3625 95.6002 37.4122 95.5507 37.4769 95.5137C37.5417 95.4767 37.6186 95.4583 37.7076 95.4583C37.7943 95.4583 37.8677 95.4727 37.9278 95.5016C37.9879 95.5299 38.0336 95.5704 38.0648 95.623C38.096 95.6756 38.1116 95.7383 38.1116 95.8111C38.1116 95.8516 38.105 95.8915 38.0917 95.9308C38.0784 95.9701 38.0596 96.0091 38.0353 96.0478C38.0116 96.086 37.9833 96.1247 37.9504 96.164C37.9174 96.2033 37.8807 96.2435 37.8402 96.2846L37.594 96.5585H38.1558ZM38.566 96.0062H38.6952C38.7408 96.0062 38.7784 95.9984 38.8079 95.9828C38.8379 95.9666 38.8602 95.9447 38.8746 95.9169C38.8897 95.8886 38.8972 95.8559 38.8972 95.8189C38.8972 95.7825 38.8905 95.751 38.8772 95.7244C38.8639 95.6973 38.8437 95.6765 38.8165 95.662C38.7899 95.647 38.7558 95.6395 38.7142 95.6395C38.6807 95.6395 38.6498 95.6461 38.6215 95.6594C38.5937 95.6727 38.5715 95.6918 38.5547 95.7166C38.5385 95.7409 38.5304 95.7701 38.5304 95.8042H38.3006C38.3006 95.736 38.3186 95.6762 38.3544 95.6247C38.3908 95.5727 38.4399 95.532 38.5018 95.5025C38.5636 95.473 38.6327 95.4583 38.709 95.4583C38.7923 95.4583 38.8651 95.4721 38.9275 95.4999C38.9905 95.527 39.0394 95.5672 39.0741 95.6204C39.1093 95.6736 39.1269 95.7395 39.1269 95.8181C39.1269 95.8557 39.118 95.8932 39.1001 95.9308C39.0827 95.9678 39.057 96.0013 39.0229 96.0314C38.9894 96.0609 38.948 96.0848 38.8989 96.1033C38.8504 96.1213 38.7946 96.1302 38.7316 96.1302H38.566V96.0062ZM38.566 96.1831V96.0609H38.7316C38.8027 96.0609 38.8642 96.0692 38.9163 96.086C38.9689 96.1022 39.0122 96.1253 39.0463 96.1554C39.0804 96.1848 39.1056 96.2192 39.1217 96.2585C39.1385 96.2979 39.1469 96.34 39.1469 96.3851C39.1469 96.4441 39.1359 96.4967 39.1139 96.5429C39.092 96.5886 39.061 96.6273 39.0212 96.6591C38.9819 96.6909 38.9356 96.7152 38.8824 96.732C38.8293 96.7481 38.7717 96.7562 38.7099 96.7562C38.6561 96.7562 38.6038 96.749 38.553 96.7346C38.5027 96.7195 38.4573 96.6973 38.4168 96.6678C38.3764 96.6377 38.3443 96.6002 38.3206 96.5551C38.2969 96.5094 38.285 96.4565 38.285 96.3964H38.5148C38.5148 96.4311 38.5232 96.462 38.5399 96.4892C38.5573 96.5163 38.581 96.5377 38.611 96.5533C38.6417 96.5684 38.6761 96.5759 38.7142 96.5759C38.7564 96.5759 38.7926 96.5684 38.8226 96.5533C38.8532 96.5377 38.8767 96.5158 38.8928 96.4874C38.909 96.4585 38.9171 96.4242 38.9171 96.3843C38.9171 96.3369 38.9082 96.2984 38.8902 96.2689C38.8723 96.2395 38.8466 96.2178 38.8131 96.2039C38.7801 96.19 38.7408 96.1831 38.6952 96.1831H38.566Z" fill="#10265F"/>
<path fill-rule="evenodd" clip-rule="evenodd" d="M42.8263 79.1094C43.4843 79.1094 44.0177 78.576 44.0177 77.918V41.8732C44.0177 41.2152 44.5511 40.6818 45.2091 40.6818H74.4737C76.3636 40.6818 77.8957 42.2138 77.8957 44.1037V64.3793C77.8957 73.7344 70.3118 81.3183 60.9567 81.3183H47.418C46.76 81.3183 46.2266 81.8517 46.2266 82.5097V96.9805C46.2266 97.6385 45.6932 98.1719 45.0352 98.1719L27.1641 98.1719H44.0177H60.9567C79.6198 98.1719 94.7493 83.0424 94.7493 64.3793V44.1037C94.7493 32.9058 85.6716 23.8281 74.4737 23.8281H33.1211C29.8311 23.8281 27.1641 26.4952 27.1641 29.7852V77.918C27.1641 78.576 27.6975 79.1094 28.3555 79.1094H42.8263Z" fill="#10265F"/>
<path fill-rule="evenodd" clip-rule="evenodd" d="M32.8828 81.2539H38.125V90.4466L38.0671 90.5469H38.0446L37.6732 89.9035C37.6548 89.8717 37.609 89.8717 37.5906 89.9035L37.2192 90.5469H37.1967L36.8252 89.9035C36.8069 89.8717 36.761 89.8717 36.7427 89.9035L36.3712 90.5469H36.3492L35.9777 89.9035C35.9594 89.8717 35.9135 89.8717 35.8952 89.9035L35.5237 90.5469H35.5012L35.1298 89.9035C35.1114 89.8717 35.0656 89.8717 35.0472 89.9035L34.6758 90.5469H34.6533L34.2818 89.9035C34.2635 89.8717 34.2176 89.8717 34.1993 89.9035L33.8278 90.5469H33.8058L33.4344 89.9035C33.416 89.8717 33.3702 89.8717 33.3518 89.9035L32.9804 90.5469H32.9579L32.8828 90.4169V81.2539Z" fill="#10265F"/>
</svg>
