<svg width="80" height="80" viewBox="0 0 80 80" fill="none" xmlns="http://www.w3.org/2000/svg">
<rect width="80" height="80" rx="15.625" fill="white"/>
<path d="M21.0266 43.4745V34.265H24.0999V50H21.0881V47.2751H20.9242C20.5622 48.1151 19.9817 48.8151 19.1827 49.3751C18.3905 49.9283 17.4036 50.2049 16.2221 50.2049C15.2114 50.2049 14.3167 49.9829 13.5382 49.539C12.7664 49.0883 12.1586 48.4224 11.7147 47.5414C11.2776 46.6604 11.0591 45.5711 11.0591 44.2735V34.265H14.1221V43.9047C14.1221 44.977 14.4191 45.8306 15.0133 46.4658C15.6075 47.1009 16.3792 47.4185 17.3285 47.4185C17.9022 47.4185 18.4724 47.2751 19.0393 46.9882C19.6129 46.7014 20.0876 46.2677 20.4632 45.6872C20.8456 45.1067 21.0334 44.3691 21.0266 43.4745ZM21.0036 50V34.265H23.9436V36.826H24.1383C24.4661 35.9587 25.0022 35.2826 25.7466 34.7977C26.491 34.306 27.3822 34.0601 28.4203 34.0601C29.4721 34.0601 30.353 34.306 31.0633 34.7977C31.7804 35.2894 32.3097 35.9655 32.6511 36.826H32.8151C33.1907 35.986 33.7882 35.3167 34.6078 34.8182C35.4273 34.3128 36.4039 34.0601 37.5376 34.0601C38.9649 34.0601 40.1294 34.5075 41.0308 35.4021C41.9392 36.2968 42.3933 37.6456 42.3933 39.4485V50H39.3303V39.7354C39.3303 38.67 39.0401 37.8983 38.4596 37.4202C37.8791 36.9421 37.1859 36.7031 36.38 36.7031C35.3829 36.7031 34.6078 37.0104 34.0546 37.6251C33.5014 38.2329 33.2248 39.0149 33.2248 39.971V50H30.1721V39.5407C30.1721 38.6871 29.9057 38.0007 29.373 37.4817C28.8403 36.9626 28.1471 36.7031 27.2935 36.7031C26.713 36.7031 26.1769 36.8568 25.6851 37.1641C25.2002 37.4646 24.8076 37.8846 24.5071 38.4241C24.2134 38.9637 24.0666 39.5885 24.0666 40.2988V50H21.0036ZM39.5326 50V29.02H42.5956V36.8158H42.78C42.9576 36.488 43.2137 36.109 43.5483 35.6787C43.883 35.2484 44.3474 34.8728 44.9415 34.5518C45.5357 34.224 46.3211 34.0601 47.2977 34.0601C48.568 34.0601 49.7017 34.3811 50.6988 35.0231C51.6958 35.665 52.4778 36.5904 53.0447 37.7992C53.6183 39.008 53.9052 40.4627 53.9052 42.1632C53.9052 43.8638 53.6217 45.3218 53.0549 46.5375C52.4881 47.7463 51.7095 48.6785 50.7192 49.3341C49.729 49.9829 48.5987 50.3073 47.3284 50.3073C46.3723 50.3073 45.5903 50.1468 44.9825 49.8258C44.3815 49.5049 43.9103 49.1292 43.5688 48.699C43.2274 48.2687 42.9644 47.8863 42.78 47.5517H42.5239V50H39.5326ZM42.5342 42.1325C42.5342 43.2389 42.6947 44.2086 43.0157 45.0418C43.3366 45.875 43.801 46.5272 44.4089 46.9985C45.0167 47.4629 45.7611 47.6951 46.6421 47.6951C47.5572 47.6951 48.3221 47.4526 48.9368 46.9677C49.5514 46.476 50.0158 45.8101 50.33 44.9701C50.6509 44.1301 50.8114 43.1842 50.8114 42.1325C50.8114 41.0944 50.6544 40.1622 50.3402 39.3359C50.0329 38.5095 49.5685 37.8573 48.947 37.3792C48.3324 36.9012 47.564 36.6621 46.6421 36.6621C45.7542 36.6621 45.003 36.8909 44.3884 37.3485C43.7805 37.8061 43.3196 38.4446 43.0054 39.2641C42.6913 40.0837 42.5342 41.0398 42.5342 42.1325Z" fill="#10265F"/>
<path d="M57.5357 51.2013C56.2735 51.2013 55.1865 50.9334 54.2745 50.3975C53.3682 49.8561 52.6411 49.2325 52.1727 48.1187C51.5015 46.5228 51.158 43.923 51.2803 40.5586C51.3302 39.1835 51.5249 38.1058 52.0142 37.1114C52.5091 36.117 53.1986 35.3408 54.0827 34.7829C54.9724 34.2249 56.0121 33.9459 57.2021 33.9459C57.5879 33.9459 60.0399 33.9459 62.2425 33.9459C64.661 33.9459 67.4414 33.8369 69.2015 35.4955C69.7409 36.0038 70.1663 36.6639 70.4776 37.476C70.789 38.2826 70.9447 39.2631 70.9447 40.4177V41.2961L52.6898 41.2215V39.0341L68.5009 39.1086C68.5009 38.4568 68.3675 38.2107 68.1006 37.708C67.1688 35.9337 64.548 35.9927 62.5439 35.9927C60.3039 35.9927 57.5896 35.9927 57.2187 35.9927C56.5181 35.9927 55.9065 36.164 55.3838 36.5065C54.8667 36.8435 54.4664 37.2854 54.1828 37.8323C53.9048 38.3737 53.7658 38.9621 53.7658 39.5974V41.0475C53.7658 41.8983 53.8452 46.2903 54.3746 47.3232C54.6805 47.9198 55.1058 48.3756 55.6507 48.6905C56.1957 48.9999 56.8323 49.1545 57.5607 49.1545C58.0334 49.1545 58.4643 49.0882 58.8535 48.9557C59.2428 48.8176 59.5792 48.6132 59.8627 48.3425C60.1463 48.0718 60.3632 47.7375 60.5133 47.3398L62.8737 47.7624C62.6846 48.4529 62.3454 49.0579 61.8561 49.5772C61.3724 50.0909 60.7635 50.4914 60.0295 50.7787C59.3011 51.0605 58.4699 51.2013 57.5357 51.2013Z" fill="#10265F"/>
<path d="M60.5 50.5378V42.3227H62.9111V44.3524H63.0446C63.2782 43.6648 63.6898 43.124 64.2794 42.7303C64.8745 42.331 65.5475 42.1313 66.2984 42.1313C66.4541 42.1313 66.6376 42.1369 66.849 42.148C67.0659 42.1591 67.2356 42.1729 67.3579 42.1896V44.5687C67.2578 44.541 67.0798 44.5105 66.824 44.4772C66.5681 44.4384 66.3123 44.419 66.0564 44.419C65.4668 44.419 64.9412 44.5438 64.4796 44.7933C64.0235 45.0373 63.662 45.3784 63.395 45.8165C63.128 46.2491 62.9945 46.7427 62.9945 47.2973C62.9945 47.2973 62.8671 48.215 62.2034 49.2105C61.0973 50.4272 60.5 50.5378 60.5 50.5378Z" fill="#10265F"/>
<path d="M68.3299 46.6613L68.457 46.6613L68.457 47.1168L68.3299 47.1168L68.3299 46.6613ZM67.6001 47.0674L68.457 47.0674L68.457 47.2292L67.6001 47.2292L67.6001 47.0674ZM67.9538 46.7208L68.078 46.7208L68.078 47.1168L67.9538 47.1168L67.9538 46.7208ZM67.6001 46.6631L67.7279 46.6631L67.7279 47.1168L67.6001 47.1168L67.6001 46.6631ZM68.2346 46.1005C68.2181 46.1005 68.2034 46.103 68.1904 46.1081C68.1771 46.1128 68.1651 46.1216 68.1545 46.1346C68.1435 46.1471 68.133 46.165 68.1228 46.1881C68.1122 46.2109 68.1012 46.2403 68.0898 46.2764C68.0772 46.3164 68.0631 46.3537 68.0474 46.3882C68.0317 46.4228 68.0135 46.4532 67.9927 46.4795C67.9719 46.5054 67.948 46.5256 67.9209 46.5401C67.8934 46.5546 67.8616 46.5619 67.8256 46.5619C67.7902 46.5619 67.7581 46.5544 67.729 46.5395C67.7 46.5242 67.6751 46.5026 67.6543 46.4748C67.6331 46.4469 67.6168 46.4141 67.6054 46.3765C67.5941 46.3384 67.5884 46.2964 67.5884 46.2505C67.5884 46.187 67.6 46.132 67.6231 46.0857C67.6463 46.0391 67.6776 46.003 67.7173 45.9775C67.7569 45.952 67.8014 45.9392 67.8509 45.9392L67.8509 46.1005C67.8242 46.1005 67.8006 46.1061 67.7802 46.1175C67.7598 46.1285 67.7437 46.1454 67.732 46.1681C67.7202 46.1905 67.7143 46.2187 67.7143 46.2529C67.7143 46.2858 67.7192 46.3133 67.729 46.3353C67.7388 46.3569 67.7522 46.3731 67.7691 46.3841C67.7859 46.3947 67.8048 46.4 67.8256 46.4C67.8412 46.4 67.8554 46.3963 67.8679 46.3888C67.8801 46.3814 67.8917 46.3702 67.9026 46.3553C67.9132 46.3404 67.9232 46.3219 67.9327 46.3C67.9417 46.2776 67.9507 46.2517 67.9597 46.2223C67.9739 46.1752 67.9896 46.134 68.0068 46.0987C68.0241 46.063 68.0437 46.0334 68.0657 46.0098C68.0876 45.9859 68.1124 45.968 68.1398 45.9563C68.1673 45.9441 68.1985 45.938 68.2334 45.938C68.2703 45.938 68.3032 45.9453 68.3323 45.9598C68.3613 45.9743 68.386 45.9951 68.4064 46.0222C68.4268 46.0493 68.4423 46.0818 68.4529 46.1199C68.4635 46.1575 68.4688 46.1997 68.4688 46.2464C68.4688 46.288 68.4633 46.3292 68.4523 46.37C68.4409 46.4104 68.4241 46.4471 68.4017 46.48C68.379 46.513 68.3503 46.5393 68.3158 46.5589C68.2809 46.5785 68.2401 46.5883 68.1934 46.5883L68.1934 46.4259C68.2204 46.4259 68.2436 46.4216 68.2628 46.413C68.2817 46.4039 68.2972 46.3914 68.3093 46.3753C68.3211 46.3588 68.3297 46.3396 68.3352 46.3176C68.3407 46.2956 68.3434 46.2719 68.3434 46.2464C68.3434 46.2134 68.3389 46.1864 68.3299 46.1652C68.3205 46.1436 68.3075 46.1275 68.2911 46.1169C68.2746 46.1059 68.2558 46.1005 68.2346 46.1005ZM67.6001 45.4454L68.457 45.4454L68.457 45.6067L67.6001 45.6067L67.6001 45.4454ZM67.6001 45.1794L67.7279 45.1794L67.7279 45.8698L67.6001 45.8698L67.6001 45.1794ZM68.3346 44.2407L68.457 44.2407L68.457 44.821L68.3523 44.821L68.0515 44.5426C68.0186 44.5136 67.9899 44.4907 67.9656 44.4738C67.9413 44.4569 67.9193 44.445 67.8997 44.4379C67.8797 44.4304 67.8607 44.4267 67.8426 44.4267C67.8163 44.4267 67.7934 44.4314 67.7738 44.4408C67.7538 44.4503 67.7383 44.464 67.7273 44.482C67.7163 44.4997 67.7108 44.5215 67.7108 44.5474C67.7108 44.576 67.7175 44.6005 67.7308 44.6209C67.7437 44.6409 67.7618 44.6562 67.7849 44.6668C67.8081 44.677 67.8346 44.6821 67.8644 44.6821L67.8644 44.8381C67.8138 44.8381 67.7677 44.8263 67.7261 44.8028C67.6841 44.7792 67.6506 44.7455 67.6255 44.7015C67.6003 44.6576 67.5878 44.6054 67.5878 44.545C67.5878 44.4862 67.5976 44.4363 67.6172 44.3955C67.6364 44.3547 67.6639 44.3237 67.6996 44.3025C67.7353 44.2813 67.7779 44.2708 67.8273 44.2708C67.8548 44.2708 67.8819 44.2753 67.9085 44.2843C67.9352 44.2933 67.9617 44.3061 67.988 44.3225C68.0139 44.3386 68.0402 44.3579 68.0668 44.3802C68.0935 44.4026 68.1208 44.4275 68.1486 44.455L68.3346 44.6221L68.3346 44.2407ZM67.955 43.5651L68.0992 43.5651C68.1651 43.5651 68.2214 43.5718 68.2681 43.5851C68.3148 43.5985 68.3531 43.6177 68.3829 43.6428C68.4123 43.6679 68.4341 43.6979 68.4482 43.7328C68.4619 43.7678 68.4688 43.8066 68.4688 43.8494C68.4688 43.8835 68.4645 43.9153 68.4559 43.9447C68.4468 43.9741 68.4331 44.0006 68.4147 44.0242C68.3958 44.0473 68.3719 44.0673 68.3429 44.0842C68.3138 44.1007 68.2791 44.1134 68.2387 44.1224C68.1983 44.1311 68.1518 44.1354 68.0992 44.1354L67.955 44.1354C67.8891 44.1354 67.833 44.1287 67.7867 44.1154C67.7404 44.1017 67.7026 44.0822 67.6731 44.0571C67.6437 44.032 67.6223 44.002 67.609 43.9671C67.5952 43.9322 67.5884 43.8933 67.5884 43.8506C67.5884 43.816 67.5927 43.7842 67.6013 43.7552C67.61 43.7258 67.6235 43.6995 67.6419 43.6764C67.66 43.6528 67.6835 43.6328 67.7126 43.6163C67.7412 43.5998 67.7757 43.5873 67.8161 43.5787C67.8562 43.5696 67.9025 43.5651 67.955 43.5651ZM68.1204 43.7205L67.9333 43.7205C67.9003 43.7205 67.8717 43.7225 67.8473 43.7264C67.8226 43.7299 67.8016 43.7352 67.7844 43.7423C67.7671 43.7493 67.7532 43.7582 67.7426 43.7687C67.7316 43.7793 67.7235 43.7915 67.7184 43.8052C67.7133 43.819 67.7108 43.8341 67.7108 43.8506C67.7108 43.871 67.7149 43.8892 67.7231 43.9053C67.731 43.9214 67.7436 43.9349 67.7608 43.9459C67.7781 43.9569 67.801 43.9653 67.8297 43.9712C67.8579 43.9767 67.8924 43.9794 67.9333 43.9794L68.1204 43.9794C68.1534 43.9794 68.1822 43.9777 68.2069 43.9741C68.2316 43.9702 68.2528 43.9647 68.2705 43.9577C68.2881 43.9502 68.3026 43.9414 68.314 43.9312C68.325 43.9206 68.3332 43.9084 68.3387 43.8947C68.3438 43.881 68.3464 43.8659 68.3464 43.8494C68.3464 43.8286 68.3423 43.8103 68.334 43.7946C68.3258 43.7786 68.3128 43.765 68.2952 43.754C68.2771 43.743 68.2538 43.7348 68.2252 43.7293C68.1961 43.7234 68.1612 43.7205 68.1204 43.7205ZM68.3346 42.8636L68.457 42.8636L68.457 43.4439L68.3523 43.4439L68.0515 43.1655C68.0186 43.1365 67.9899 43.1135 67.9656 43.0967C67.9413 43.0798 67.9193 43.0678 67.8997 43.0608C67.8797 43.0533 67.8607 43.0496 67.8426 43.0496C67.8163 43.0496 67.7934 43.0543 67.7738 43.0637C67.7538 43.0731 67.7383 43.0869 67.7273 43.1049C67.7163 43.1226 67.7108 43.1443 67.7108 43.1702C67.7108 43.1989 67.7175 43.2234 67.7308 43.2438C67.7437 43.2638 67.7618 43.2791 67.7849 43.2897C67.8081 43.2999 67.8346 43.305 67.8644 43.305L67.8644 43.461C67.8138 43.461 67.7677 43.4492 67.7261 43.4256C67.6841 43.4021 67.6506 43.3684 67.6255 43.3244C67.6003 43.2805 67.5878 43.2283 67.5878 43.1679C67.5878 43.109 67.5976 43.0592 67.6172 43.0184C67.6364 42.9776 67.6639 42.9466 67.6996 42.9254C67.7353 42.9042 67.7779 42.8936 67.8273 42.8936C67.8548 42.8936 67.8819 42.8981 67.9085 42.9072C67.9352 42.9162 67.9617 42.9289 67.988 42.9454C68.0139 42.9615 68.0402 42.9807 68.0668 43.0031C68.0935 43.0254 68.1208 43.0504 68.1486 43.0778L68.3346 43.245L68.3346 42.8636ZM67.9597 42.5852L67.9597 42.4975C67.9597 42.4666 67.9544 42.4411 67.9438 42.421C67.9329 42.4006 67.9179 42.3855 67.8991 42.3757C67.8799 42.3655 67.8577 42.3604 67.8326 42.3604C67.8079 42.3604 67.7865 42.3649 67.7685 42.374C67.75 42.383 67.7359 42.3967 67.7261 42.4152C67.7159 42.4332 67.7108 42.4564 67.7108 42.4846C67.7108 42.5074 67.7153 42.5283 67.7243 42.5476C67.7334 42.5664 67.7463 42.5815 67.7632 42.5929C67.7796 42.6039 67.7995 42.6094 67.8226 42.6094L67.8226 42.7653C67.7763 42.7653 67.7357 42.7532 67.7008 42.7288C67.6655 42.7041 67.6378 42.6708 67.6178 42.6288C67.5978 42.5868 67.5878 42.5399 67.5878 42.4881C67.5878 42.4316 67.5972 42.3822 67.616 42.3398C67.6345 42.2971 67.6617 42.2639 67.6978 42.2404C67.7339 42.2164 67.7787 42.2045 67.832 42.2045C67.8575 42.2045 67.883 42.2105 67.9085 42.2227C67.9336 42.2345 67.9564 42.2519 67.9768 42.2751C67.9968 42.2978 68.0131 42.3259 68.0256 42.3592C68.0378 42.3922 68.0439 42.4301 68.0439 42.4728L68.0439 42.5852L67.9597 42.5852ZM68.0798 42.5852L67.9968 42.5852L67.9968 42.4728C67.9968 42.4246 68.0025 42.3828 68.0139 42.3475C68.0249 42.3118 68.0406 42.2823 68.061 42.2592C68.081 42.2361 68.1043 42.219 68.131 42.208C68.1577 42.1966 68.1863 42.1909 68.2169 42.1909C68.2569 42.1909 68.2926 42.1984 68.324 42.2133C68.355 42.2282 68.3813 42.2492 68.4029 42.2763C68.4245 42.3029 68.4409 42.3343 68.4523 42.3704C68.4633 42.4065 68.4688 42.4456 68.4688 42.4875C68.4688 42.524 68.4639 42.5595 68.4541 42.5941C68.4439 42.6282 68.4288 42.659 68.4088 42.6865C68.3884 42.7139 68.3629 42.7357 68.3323 42.7518C68.3013 42.7679 68.2654 42.7759 68.2246 42.7759L68.2246 42.62C68.2481 42.62 68.2691 42.6143 68.2875 42.6029C68.306 42.5911 68.3205 42.575 68.3311 42.5546C68.3413 42.5338 68.3464 42.5105 68.3464 42.4846C68.3464 42.456 68.3413 42.4314 68.3311 42.411C68.3205 42.3902 68.3056 42.3744 68.2864 42.3634C68.2667 42.3524 68.2434 42.3469 68.2163 42.3469C68.1842 42.3469 68.1581 42.353 68.1381 42.3651C68.118 42.3773 68.1033 42.3948 68.0939 42.4175C68.0845 42.4399 68.0798 42.4666 68.0798 42.4975L68.0798 42.5852Z" fill="#10265F"/>
</svg>
