<svg width="122" height="122" viewBox="0 0 122 122" fill="none" xmlns="http://www.w3.org/2000/svg">
<rect width="122" height="122" rx="23.8281" fill="white"/>
<path d="M29.7877 67.2634V52.1108H34.8442V78H29.8888V73.5166H29.6192C29.0236 74.8987 28.0685 76.0504 26.7538 76.9718C25.4504 77.882 23.8267 78.3371 21.8827 78.3371C20.2197 78.3371 18.7477 77.9719 17.4667 77.2415C16.197 76.4999 15.1969 75.4043 14.4666 73.9548C13.7474 72.5053 13.3878 70.713 13.3878 68.5781V52.1108H18.4275V67.9713C18.4275 69.7355 18.9163 71.14 19.8939 72.185C20.8714 73.2301 22.1412 73.7526 23.7031 73.7526C24.6469 73.7526 25.5852 73.5166 26.5178 73.0446C27.4617 72.5727 28.2427 71.8592 28.8607 70.9041C29.4899 69.949 29.7989 68.7354 29.7877 67.2634ZM29.7498 78V52.1108H34.5871V56.3245H34.9074C35.4467 54.8975 36.3288 53.7851 37.5536 52.9873C38.7784 52.1782 40.2448 51.7737 41.9528 51.7737C43.6832 51.7737 45.1327 52.1782 46.3013 52.9873C47.4812 53.7963 48.352 54.9087 48.9138 56.3245H49.1835C49.8015 54.9424 50.7847 53.8412 52.1331 53.021C53.4815 52.1895 55.0884 51.7737 56.9537 51.7737C59.3021 51.7737 61.218 52.5097 62.7012 53.9817C64.1957 55.4537 64.9429 57.6729 64.9429 60.6394V78H59.9033V61.1113C59.9033 59.3584 59.4257 58.0887 58.4706 57.3021C57.5155 56.5156 56.375 56.1223 55.049 56.1223C53.4085 56.1223 52.1331 56.6279 51.223 57.6392C50.3128 58.6393 49.8577 59.9259 49.8577 61.499V78H44.835V60.7911C44.835 59.3865 44.3967 58.2572 43.5203 57.4033C42.6438 56.5493 41.5033 56.1223 40.0987 56.1223C39.1436 56.1223 38.2615 56.3751 37.4525 56.8808C36.6547 57.3752 36.0086 58.0662 35.5142 58.9539C35.031 59.8416 34.7894 60.8698 34.7894 62.0384V78H29.7498ZM60.2362 78V43.4811H65.2758V56.3077H65.5792C65.8713 55.7683 66.2927 55.1447 66.8433 54.4368C67.3939 53.7289 68.158 53.1109 69.1356 52.5827C70.1132 52.0434 71.4054 51.7737 73.0122 51.7737C75.1022 51.7737 76.9675 52.3018 78.608 53.3581C80.2486 54.4143 81.5352 55.9369 82.4678 57.9258C83.4117 59.9146 83.8836 62.308 83.8836 65.106C83.8836 67.9039 83.4173 70.3029 82.4847 72.303C81.552 74.2919 80.2711 75.8257 78.6418 76.9044C77.0124 77.9719 75.1528 78.5056 73.0628 78.5056C71.4896 78.5056 70.203 78.2416 69.203 77.7135C68.2142 77.1853 67.4388 76.5673 66.877 75.8594C66.3152 75.1515 65.8826 74.5223 65.5792 73.9717H65.1578V78H60.2362ZM65.1747 65.0554C65.1747 66.8757 65.4387 68.4713 65.9668 69.8422C66.495 71.2131 67.259 72.2862 68.2591 73.0615C69.2592 73.8256 70.484 74.2076 71.9335 74.2076C73.4392 74.2076 74.6977 73.8087 75.709 73.0109C76.7203 72.2019 77.4844 71.1063 78.0013 69.7242C78.5294 68.3421 78.7934 66.7858 78.7934 65.0554C78.7934 63.3474 78.535 61.8136 78.0181 60.454C77.5125 59.0944 76.7484 58.0213 75.7258 57.2347C74.7146 56.4481 73.4504 56.0549 71.9335 56.0549C70.4727 56.0549 69.2367 56.4313 68.2254 57.1841C67.2253 57.937 66.4669 58.9876 65.95 60.336C65.4331 61.6844 65.1747 63.2575 65.1747 65.0554Z" fill="#10265F"/>
<path d="M89.8539 80.0459C87.7771 80.0459 85.9886 79.6051 84.4882 78.7234C82.997 77.8326 81.8007 76.8065 81.03 74.974C79.9257 72.3482 79.3604 68.0706 79.5616 62.5352C79.6439 60.2727 79.9642 58.4995 80.7692 56.8634C81.5835 55.2273 82.7179 53.9502 84.1725 53.0322C85.6363 52.1142 87.3471 51.6552 89.3049 51.6552C89.9398 51.6552 93.9741 51.6552 97.598 51.6552C101.577 51.6552 106.152 51.4758 109.048 54.2047C109.935 55.041 110.635 56.1271 111.148 57.4633C111.66 58.7903 111.916 60.4037 111.916 62.3034V63.7486L81.8808 63.6259V60.0268L107.895 60.1495C107.895 59.0769 107.676 58.6722 107.237 57.845C105.703 54.9258 101.391 55.0228 98.0941 55.0228C94.4084 55.0228 89.9426 55.0228 89.3324 55.0228C88.1797 55.0228 87.1733 55.3045 86.3133 55.8681C85.4625 56.4225 84.8038 57.1497 84.3372 58.0496C83.8798 58.9403 83.6511 59.9083 83.6511 60.9536V63.3396C83.6511 64.7394 83.7817 71.9656 84.6529 73.6651C85.1561 74.6468 85.8559 75.3967 86.7525 75.9148C87.6491 76.4238 88.6966 76.6783 89.8951 76.6783C90.6727 76.6783 91.3817 76.5692 92.0221 76.3511C92.6625 76.1238 93.216 75.7875 93.6826 75.3421C94.1492 74.8968 94.506 74.3469 94.753 73.6924L98.6366 74.3878C98.3255 75.5239 97.7675 76.5192 96.9624 77.3736C96.1665 78.2189 95.1647 78.8779 93.9571 79.3506C92.7586 79.8141 91.3909 80.0459 89.8539 80.0459Z" fill="#10265F"/>
<path d="M94.7363 78.954V65.4374H98.7034V68.777H98.923C99.3074 67.6455 99.9846 66.7559 100.955 66.108C101.934 65.451 103.041 65.1226 104.277 65.1226C104.533 65.1226 104.835 65.1317 105.182 65.1499C105.539 65.1682 105.819 65.191 106.02 65.2184V69.1328C105.855 69.0872 105.562 69.037 105.141 68.9823C104.72 68.9184 104.299 68.8865 103.878 68.8865C102.908 68.8865 102.044 69.0918 101.284 69.5024C100.534 69.9039 99.9388 70.465 99.4996 71.1859C99.0603 71.8976 98.8407 72.7097 98.8407 73.6222C98.8407 73.6222 98.631 75.1321 97.539 76.77C95.7191 78.772 94.7363 78.954 94.7363 78.954Z" fill="#10265F"/>
<path d="M108.644 78.1786L109 78.1786L109 79.4556L108.644 79.4556L108.644 78.1786ZM106.598 79.317L109 79.317L109 79.7707L106.598 79.7707L106.598 79.317ZM107.589 78.3452L107.938 78.3452L107.938 79.4556L107.589 79.4556L107.589 78.3452ZM106.598 78.1835L106.956 78.1835L106.956 79.4556L106.598 79.4556L106.598 78.1835ZM108.376 76.6063C108.33 76.6063 108.289 76.6134 108.253 76.6277C108.215 76.6409 108.182 76.6657 108.152 76.702C108.121 76.7372 108.091 76.7872 108.063 76.8521C108.033 76.9159 108.002 76.9984 107.971 77.0996C107.935 77.2118 107.896 77.3163 107.852 77.4131C107.808 77.5099 107.757 77.5951 107.698 77.6688C107.64 77.7414 107.573 77.798 107.497 77.8387C107.42 77.8794 107.331 77.8998 107.23 77.8998C107.131 77.8998 107.041 77.8789 106.959 77.8371C106.878 77.7942 106.808 77.7337 106.75 77.6556C106.69 77.5775 106.645 77.4857 106.613 77.3801C106.581 77.2734 106.565 77.1557 106.565 77.027C106.565 76.8488 106.597 76.6948 106.662 76.565C106.727 76.4342 106.815 76.333 106.926 76.2615C107.037 76.19 107.162 76.1542 107.301 76.1542L107.301 76.6063C107.226 76.6063 107.16 76.6222 107.103 76.6541C107.045 76.6849 107 76.7322 106.967 76.796C106.934 76.8587 106.918 76.9379 106.918 77.0336C106.918 77.126 106.932 77.203 106.959 77.2646C106.987 77.3251 107.024 77.3707 107.071 77.4015C107.119 77.4312 107.171 77.4461 107.23 77.4461C107.274 77.4461 107.313 77.4356 107.349 77.4147C107.383 77.3938 107.415 77.3625 107.446 77.3207C107.476 77.2789 107.504 77.2272 107.53 77.1656C107.555 77.1029 107.581 77.0303 107.606 76.9478C107.645 76.8158 107.689 76.7003 107.738 76.6013C107.786 76.5013 107.841 76.4182 107.903 76.3522C107.964 76.2851 108.034 76.2351 108.111 76.2021C108.188 76.168 108.275 76.1509 108.373 76.1509C108.476 76.1509 108.569 76.1713 108.65 76.212C108.732 76.2527 108.801 76.311 108.858 76.3869C108.915 76.4628 108.959 76.554 108.988 76.6607C109.018 76.7663 109.033 76.8846 109.033 77.0155C109.033 77.132 109.018 77.2475 108.987 77.3619C108.955 77.4752 108.908 77.578 108.845 77.6704C108.781 77.7628 108.701 77.8365 108.604 77.8915C108.506 77.9465 108.392 77.974 108.261 77.974L108.261 77.5187C108.337 77.5187 108.402 77.5066 108.456 77.4824C108.508 77.4571 108.552 77.4219 108.586 77.3768C108.619 77.3306 108.643 77.2767 108.658 77.2151C108.674 77.1535 108.682 77.0869 108.682 77.0155C108.682 76.9231 108.669 76.8472 108.644 76.7878C108.617 76.7273 108.581 76.6822 108.535 76.6525C108.489 76.6217 108.436 76.6063 108.376 76.6063ZM106.598 74.77L109 74.77L109 75.2221L106.598 75.2221L106.598 74.77ZM106.598 74.0243L106.956 74.0243L106.956 75.9596L106.598 75.9596L106.598 74.0243ZM108.657 71.3928L109 71.3928L109 73.0196L108.706 73.0196L107.863 72.2392C107.771 72.1578 107.691 72.0934 107.622 72.0462C107.554 71.9989 107.493 71.9653 107.438 71.9455C107.382 71.9246 107.328 71.9142 107.278 71.9142C107.204 71.9142 107.14 71.9274 107.085 71.9538C107.028 71.9802 106.985 72.0187 106.954 72.0693C106.923 72.1187 106.908 72.1798 106.908 72.2524C106.908 72.3327 106.927 72.4014 106.964 72.4586C107 72.5147 107.051 72.5576 107.116 72.5873C107.181 72.6159 107.255 72.6302 107.339 72.6302L107.339 73.0674C107.197 73.0674 107.067 73.0344 106.951 72.9684C106.833 72.9024 106.739 72.8078 106.669 72.6846C106.598 72.5615 106.563 72.4152 106.563 72.2458C106.563 72.0808 106.591 71.9411 106.646 71.8267C106.7 71.7123 106.777 71.6254 106.877 71.5661C106.977 71.5067 107.096 71.477 107.235 71.477C107.312 71.477 107.388 71.4896 107.462 71.5149C107.537 71.5402 107.611 71.576 107.685 71.6221C107.758 71.6672 107.831 71.7211 107.906 71.7838C107.981 71.8465 108.057 71.9164 108.135 71.9934L108.657 72.4619L108.657 71.3928ZM107.593 69.4988L107.997 69.4988C108.182 69.4988 108.34 69.5175 108.47 69.5549C108.601 69.5923 108.709 69.6462 108.792 69.7166C108.875 69.787 108.936 69.8711 108.975 69.969C109.014 70.0669 109.033 70.1758 109.033 70.2957C109.033 70.3914 109.021 70.4805 108.997 70.563C108.971 70.6454 108.933 70.7197 108.881 70.7857C108.828 70.8506 108.761 70.9067 108.68 70.954C108.599 71.0002 108.501 71.0359 108.388 71.0612C108.275 71.0854 108.144 71.0975 107.997 71.0975L107.593 71.0975C107.408 71.0975 107.251 71.0788 107.121 71.0414C106.991 71.0029 106.885 70.9485 106.802 70.8781C106.72 70.8077 106.66 70.7235 106.623 70.6256C106.584 70.5278 106.565 70.4189 106.565 70.299C106.565 70.2022 106.577 70.1131 106.601 70.0317C106.625 69.9492 106.663 69.8755 106.715 69.8106C106.766 69.7446 106.832 69.6885 106.913 69.6423C106.993 69.5962 107.09 69.561 107.203 69.5368C107.316 69.5115 107.445 69.4988 107.593 69.4988ZM108.056 69.9344L107.532 69.9344C107.439 69.9344 107.359 69.9399 107.291 69.9509C107.221 69.9608 107.163 69.9756 107.114 69.9954C107.066 70.0152 107.027 70.04 106.997 70.0697C106.966 70.0994 106.944 70.1334 106.929 70.1719C106.915 70.2104 106.908 70.2528 106.908 70.299C106.908 70.3562 106.92 70.4073 106.943 70.4524C106.965 70.4975 107 70.5355 107.048 70.5663C107.097 70.5971 107.161 70.6207 107.241 70.6372C107.32 70.6526 107.417 70.6603 107.532 70.6603L108.056 70.6603C108.149 70.6603 108.23 70.6553 108.299 70.6454C108.368 70.6344 108.428 70.619 108.477 70.5993C108.526 70.5784 108.567 70.5536 108.599 70.525C108.63 70.4953 108.653 70.4612 108.668 70.4227C108.683 70.3842 108.69 70.3419 108.69 70.2957C108.69 70.2374 108.678 70.1862 108.655 70.1422C108.632 70.0972 108.596 70.0592 108.546 70.0284C108.496 69.9976 108.43 69.9745 108.35 69.9591C108.269 69.9426 108.171 69.9344 108.056 69.9344ZM108.657 67.5322L109 67.5322L109 69.1589L108.706 69.1589L107.863 68.3786C107.771 68.2972 107.691 68.2328 107.622 68.1855C107.554 68.1382 107.493 68.1047 107.438 68.0849C107.382 68.064 107.328 68.0536 107.278 68.0536C107.204 68.0536 107.14 68.0668 107.085 68.0932C107.028 68.1196 106.985 68.158 106.954 68.2086C106.923 68.2581 106.908 68.3192 106.908 68.3918C106.908 68.4721 106.927 68.5408 106.964 68.598C107 68.6541 107.051 68.697 107.116 68.7267C107.181 68.7553 107.255 68.7696 107.339 68.7696L107.339 69.2068C107.197 69.2068 107.067 69.1738 106.951 69.1078C106.833 69.0418 106.739 68.9472 106.669 68.824C106.598 68.7008 106.563 68.5546 106.563 68.3852C106.563 68.2202 106.591 68.0805 106.646 67.9661C106.7 67.8517 106.777 67.7648 106.877 67.7054C106.977 67.646 107.096 67.6164 107.235 67.6164C107.312 67.6164 107.388 67.629 107.462 67.6543C107.537 67.6796 107.611 67.7153 107.685 67.7615C107.758 67.8066 107.831 67.8605 107.906 67.9232C107.981 67.9859 108.057 68.0558 108.135 68.1328L108.657 68.6013L108.657 67.5322ZM107.606 66.7518L107.606 66.506C107.606 66.4191 107.591 66.3476 107.561 66.2915C107.531 66.2343 107.489 66.192 107.436 66.1645C107.382 66.1359 107.32 66.1216 107.25 66.1216C107.18 66.1216 107.12 66.1343 107.07 66.1596C107.018 66.1848 106.978 66.2233 106.951 66.275C106.922 66.3256 106.908 66.3905 106.908 66.4697C106.908 66.5335 106.921 66.5924 106.946 66.6463C106.971 66.699 107.008 66.7414 107.055 66.7733C107.101 66.8041 107.157 66.8195 107.221 66.8195L107.221 67.2567C107.092 67.2567 106.978 67.2226 106.88 67.1544C106.781 67.0851 106.703 66.9916 106.647 66.8739C106.591 66.7562 106.563 66.6248 106.563 66.4796C106.563 66.3212 106.59 66.1826 106.642 66.0639C106.694 65.944 106.771 65.851 106.872 65.785C106.973 65.7179 107.098 65.6844 107.248 65.6844C107.319 65.6844 107.391 65.7014 107.462 65.7355C107.533 65.7685 107.597 65.8175 107.654 65.8824C107.71 65.9462 107.755 66.0248 107.791 66.1183C107.825 66.2107 107.842 66.3168 107.842 66.4367L107.842 66.7518L107.606 66.7518ZM107.942 66.7518L107.71 66.7518L107.71 66.4367C107.71 66.3014 107.726 66.1843 107.758 66.0853C107.788 65.9852 107.832 65.9027 107.89 65.8378C107.946 65.7729 108.011 65.7251 108.086 65.6943C108.161 65.6624 108.241 65.6465 108.327 65.6465C108.439 65.6465 108.539 65.6673 108.627 65.7091C108.714 65.7509 108.788 65.8098 108.848 65.8857C108.909 65.9605 108.955 66.0485 108.987 66.1497C109.018 66.2508 109.033 66.3603 109.033 66.478C109.033 66.5803 109.019 66.6798 108.992 66.7766C108.963 66.8723 108.921 66.9586 108.865 67.0356C108.808 67.1126 108.736 67.1736 108.65 67.2187C108.563 67.2638 108.463 67.2864 108.348 67.2864L108.348 66.8492C108.414 66.8492 108.473 66.8332 108.525 66.8013C108.577 66.7683 108.617 66.7232 108.647 66.666C108.676 66.6078 108.69 66.5423 108.69 66.4697C108.69 66.3894 108.676 66.3207 108.647 66.2635C108.617 66.2052 108.575 66.1606 108.522 66.1299C108.467 66.0991 108.401 66.0837 108.325 66.0837C108.235 66.0837 108.162 66.1007 108.106 66.1348C108.05 66.1689 108.008 66.2178 107.982 66.2816C107.956 66.3443 107.942 66.4191 107.942 66.506L107.942 66.7518Z" fill="#10265F"/>
</svg>
